# xmcd
#
# Track frame offsets: 
#        150
#        15300
#        37655
#        58168
#        78662
#        98655
#        121479
#        145559
#        162341
#        181213
#        196368
#        212797
#        230934
#
# Disc length: 3304 seconds
#
# Revision: 0
# Processed by: cddbd v1.5.2PL0 Copyright (c) Steve Scherf et al.
# Submitted via: ExactAudioCopyFreeDBPlugin 1.0
#
DISCID=aa0ce60d
DTITLE=L Shape Lot - Blackwater Sessions
DYEAR=2012
DGENRE=Country
TTITLE0=Down to Ride
TTITLE1=Cold
TTITLE2=Run Johnny Run
TTITLE3=Casey's Song
TTITLE4=Brokedown Chords
TTITLE5=Blinded
TTITLE6=Backroads
TTITLE7=Shine
TTITLE8=Help You Down
TTITLE9=She Left Me Singin'
TTITLE10=Five' Two"
TTITLE11=Church (Live at BAC)
TTITLE12=Old Rugged Cross
EXTD=
EXTT0=
EXTT1=
EXTT2=
EXTT3=
EXTT4=
EXTT5=
EXTT6=
EXTT7=
EXTT8=
EXTT9=
EXTT10=
EXTT11=
EXTT12=
PLAYORDER=
